<svg width="35" height="35" viewBox="0 0 35 35" fill="none" xmlns="http://www.w3.org/2000/svg">
<path d="M35 17.5C35 27.165 27.165 35 17.5 35C7.83502 35 0 27.165 0 17.5C0 7.83502 7.83502 0 17.5 0C27.165 0 35 7.83502 35 17.5ZM3.22 17.5C3.22 25.3866 9.61337 31.78 17.5 31.78C25.3866 31.78 31.78 25.3866 31.78 17.5C31.78 9.61337 25.3866 3.22 17.5 3.22C9.61337 3.22 3.22 9.61337 3.22 17.5Z" fill="#C9BFBF"/>
<path d="M3.01881 24.0412C2.20846 24.4072 1.84191 25.3654 2.28084 26.1387C3.55647 28.386 5.31761 30.3291 7.44331 31.8218C10.0094 33.6237 13.0126 34.7031 16.1387 34.947C19.2648 35.1909 22.399 34.5904 25.2135 33.2083C28.0281 31.8262 30.4196 29.7133 32.138 27.0905C33.8564 24.4677 34.8386 21.4314 34.9817 18.2991C35.1249 15.1668 34.4239 12.0535 32.9519 9.28489C31.48 6.51626 29.2912 4.19397 26.6144 2.56088C24.3971 1.20808 21.9124 0.369361 19.3426 0.0972737C18.4584 0.00365034 17.7263 0.722347 17.7143 1.61145C17.7023 2.50054 18.4157 3.22167 19.2978 3.33362C21.29 3.58645 23.2128 4.25751 24.9374 5.30968C27.1216 6.64228 28.9076 8.53727 30.1088 10.7965C31.3099 13.0557 31.8819 15.5961 31.7651 18.1521C31.6483 20.708 30.8468 23.1857 29.4446 25.3259C28.0424 27.4661 26.0909 29.1902 23.7942 30.318C21.4976 31.4458 18.94 31.9358 16.3892 31.7367C13.8383 31.5377 11.3877 30.6569 9.29374 29.1866C7.64043 28.0256 6.25738 26.5308 5.23006 24.8053C4.77518 24.0413 3.82915 23.6752 3.01881 24.0412Z" fill="#863A0A"/>
</svg>
