<svg width="35" height="35" viewBox="0 0 35 35" fill="none" xmlns="http://www.w3.org/2000/svg">
<path d="M35 17.5C35 27.165 27.165 35 17.5 35C7.83502 35 0 27.165 0 17.5C0 7.83502 7.83502 0 17.5 0C27.165 0 35 7.83502 35 17.5ZM3.22 17.5C3.22 25.3866 9.61337 31.78 17.5 31.78C25.3866 31.78 31.78 25.3866 31.78 17.5C31.78 9.61337 25.3866 3.22 17.5 3.22C9.61337 3.22 3.22 9.61337 3.22 17.5Z" fill="#C9BFBF"/>
<path d="M31.1296 25.6687C31.8922 26.1258 32.8885 25.8807 33.2736 25.0792C34.372 22.7933 34.9632 20.2897 34.9983 17.7409C35.0408 14.6541 34.266 11.611 32.7525 8.92035C31.239 6.22971 29.0407 3.98732 26.3806 2.42073C24.1842 1.12722 21.7376 0.33244 19.2136 0.0840977C18.3287 -0.00297103 17.602 0.721131 17.5966 1.61029C17.5912 2.49946 18.3099 3.21528 19.1928 3.32069C21.148 3.55411 23.0399 4.19019 24.7466 5.19531C26.9172 6.47366 28.711 8.30345 29.9461 10.499C31.1811 12.6946 31.8133 15.1778 31.7786 17.6966C31.7514 19.6771 31.3126 21.6242 30.4967 23.4163C30.1284 24.2256 30.3669 25.2116 31.1296 25.6687Z" fill="#863A0A"/>
</svg>
