<svg width="12" height="12" viewBox="0 0 12 12" fill="none" xmlns="http://www.w3.org/2000/svg">
<path d="M11.0286 3.92909C10.4161 1.23409 8.0653 0.020752 6.0003 0.020752C6.0003 0.020752 6.0003 0.020752 5.99447 0.020752C3.9353 0.020752 1.57863 1.22825 0.966133 3.92325C0.283633 6.93325 2.12697 9.48242 3.7953 11.0866C4.41363 11.6816 5.20697 11.9791 6.0003 11.9791C6.79363 11.9791 7.58697 11.6816 8.19947 11.0866C9.8678 9.48242 11.7111 6.93909 11.0286 3.92909ZM6.0003 6.85159C4.9853 6.85159 4.1628 6.02909 4.1628 5.01409C4.1628 3.99909 4.9853 3.17659 6.0003 3.17659C7.0153 3.17659 7.8378 3.99909 7.8378 5.01409C7.8378 6.02909 7.0153 6.85159 6.0003 6.85159Z" fill="#292D32"/>
</svg>
