<svg width="65" height="23" viewBox="0 0 65 23" fill="none" xmlns="http://www.w3.org/2000/svg">
<rect width="65" height="23" rx="3" fill="#D6B018"/>
<path d="M10.12 12.76V11.53H11.54C11.8267 11.53 12.0667 11.4733 12.26 11.36C12.46 11.2467 12.61 11.09 12.71 10.89C12.8167 10.69 12.87 10.46 12.87 10.2C12.87 9.94 12.8167 9.71 12.71 9.51C12.61 9.31 12.46 9.15667 12.26 9.05C12.0667 8.93667 11.8267 8.88 11.54 8.88H10.12V7.65H11.42C12.0333 7.65 12.5533 7.75 12.98 7.95C13.4133 8.15 13.7433 8.43667 13.97 8.81C14.1967 9.17667 14.31 9.61333 14.31 10.12V10.28C14.31 10.7867 14.1967 11.2267 13.97 11.6C13.7433 11.9667 13.4133 12.2533 12.98 12.46C12.5533 12.66 12.0333 12.76 11.42 12.76H10.12ZM8.9 15V7.65H10.32V15H8.9ZM15.382 15V7.7H16.772V15H15.382ZM16.572 15V13.8H19.882V15H16.572ZM16.572 11.89V10.69H19.622V11.89H16.572ZM16.572 8.9V7.7H19.802V8.9H16.572ZM21.2391 15V7.7H23.5691L26.6391 13.82H26.9691L26.7691 14V7.7H28.1091V15H25.7691L22.6991 8.88H22.3591L22.5591 8.7V15H21.2391ZM31.0309 15.04V13.72H32.5409C32.9209 13.72 33.2576 13.6633 33.5509 13.55C33.8509 13.43 34.1043 13.2633 34.3109 13.05C34.5176 12.8367 34.6743 12.5867 34.7809 12.3C34.8943 12.0067 34.9509 11.6833 34.9509 11.33C34.9509 10.9633 34.8943 10.6367 34.7809 10.35C34.6743 10.0567 34.5176 9.80667 34.3109 9.6C34.1043 9.39333 33.8509 9.23667 33.5509 9.13C33.2576 9.02333 32.9209 8.97 32.5409 8.97H31.0309V7.65H32.4509C33.1109 7.65 33.6876 7.74667 34.1809 7.94C34.6743 8.13333 35.0843 8.4 35.4109 8.74C35.7376 9.07333 35.9809 9.45667 36.1409 9.89C36.3076 10.3167 36.3909 10.76 36.3909 11.22V11.44C36.3909 11.88 36.3076 12.3133 36.1409 12.74C35.9809 13.1667 35.7376 13.5533 35.4109 13.9C35.0843 14.2467 34.6743 14.5233 34.1809 14.73C33.6876 14.9367 33.1109 15.04 32.4509 15.04H31.0309ZM29.8109 15.04V7.65H31.2309V15.04H29.8109ZM37.5825 15V7.7H39.0025V15H37.5825ZM40.7242 15V7.7H43.0542L46.1242 13.82H46.4542L46.2542 14V7.7H47.5942V15H45.2542L42.1842 8.88H41.8442L42.0442 8.7V15H40.7242ZM52.6961 15.19C52.0694 15.19 51.5161 15.0867 51.0361 14.88C50.5628 14.6667 50.1628 14.3833 49.8361 14.03C49.5161 13.67 49.2728 13.2667 49.1061 12.82C48.9461 12.3667 48.8661 11.8967 48.8661 11.41V11.19C48.8661 10.73 48.9461 10.28 49.1061 9.84C49.2661 9.4 49.4994 9.00333 49.8061 8.65C50.1194 8.29667 50.5028 8.01667 50.9561 7.81C51.4161 7.59667 51.9428 7.49 52.5361 7.49C53.1761 7.49 53.7428 7.61 54.2361 7.85C54.7294 8.08333 55.1261 8.41333 55.4261 8.84C55.7261 9.26 55.9028 9.75 55.9561 10.31H54.5261C54.4794 9.99667 54.3628 9.73 54.1761 9.51C53.9894 9.28333 53.7528 9.11 53.4661 8.99C53.1861 8.87 52.8761 8.81 52.5361 8.81C52.1961 8.81 51.8861 8.87 51.6061 8.99C51.3328 9.11 51.0994 9.28 50.9061 9.5C50.7128 9.72 50.5628 9.98333 50.4561 10.29C50.3561 10.5967 50.3061 10.9367 50.3061 11.31C50.3061 11.7167 50.3628 12.08 50.4761 12.4C50.5894 12.72 50.7494 12.9933 50.9561 13.22C51.1628 13.44 51.4128 13.61 51.7061 13.73C51.9994 13.8433 52.3294 13.9 52.6961 13.9C53.1828 13.9 53.6094 13.8 53.9761 13.6C54.3428 13.3933 54.6094 13.1267 54.7761 12.8L54.5261 13.95V12.07H55.8361V13.69C55.5228 14.1633 55.0961 14.5333 54.5561 14.8C54.0161 15.06 53.3961 15.19 52.6961 15.19ZM52.4661 12.35V11.29H56.4461V12.35H52.4661Z" fill="white"/>
</svg>
