<svg width="13" height="13" viewBox="0 0 13 13" fill="none" xmlns="http://www.w3.org/2000/svg">
<path d="M7.72248 0.876126L8.80319 3.03753C8.95055 3.33841 9.34354 3.627 9.67512 3.68227L11.6339 4.0077C12.8865 4.21648 13.1813 5.12525 12.2786 6.02174L10.7558 7.54455C10.4979 7.80244 10.3567 8.29981 10.4365 8.65595L10.8725 10.541C11.2163 12.0331 10.4242 12.6103 9.10406 11.8305L7.2681 10.7437C6.93652 10.5472 6.39003 10.5472 6.05231 10.7437L4.21634 11.8305C2.90231 12.6103 2.10406 12.027 2.44792 10.541L2.88389 8.65595C2.96371 8.29981 2.82248 7.80244 2.56459 7.54455L1.04178 6.02174C0.145291 5.12525 0.433888 4.21648 1.68652 4.0077L3.64529 3.68227C3.97073 3.627 4.36371 3.33841 4.51108 3.03753L5.59178 0.876126C6.18126 -0.296681 7.13915 -0.296681 7.72248 0.876126Z" fill="#F1DE0A"/>
</svg>
